PathFileType	4	(x/y/z)	S09_P20_T03
DataRate	CameraRate	NumFrames	NumMarkers	Units	OrigDataRate	OrigDataStartFrame	OrigNumFrames
240	240	10	51	mm	240	1	409
Frame#	Time	Sternum			R.Acromium			L.Acromium			Top.Head			R.ASIS			L.ASIS			R.PSIS			L.PSIS			R.Great.Tro			L.Great.Tro			R.Iliac.Crest			L.Iliac.Crest			V.Sacral			R.Thigh.Upper.Post			R.Thigh.Lower.Ant			R.Thigh.Lower.Post			R.Thigh.Upper.Ant			R.Knee.Lat			R.Knee.Med			R.Shank.Upper.Post			R.Shank.Lower.Ant			R.Shank.Lower.Post			R.Shank.Upper.Ant			R.Ankle.Lat			R.Ankle.Med			R.Heel.Upper			R.Heel.Med			R.Heel.Lat			R.Toe.Lat			R.Toe.Med			R.Toe.Tip			L.Thigh.Upper.Post			L.Thigh.Lower.Ant			L.Thigh.Lower.Post			L.Thigh.Upper.Ant			L.Knee.Lat			L.Knee.Med			L.Shank.Upper.Post			L.Shank.Lower.Ant			L.Shank.Lower.Post			L.Shank.Upper.Ant			L.Ankle.Lat			L.Ankle.Med			L.Heel.Upper			L.Heel.Med			L.Heel.Lat			L.Toe.Lat			L.Toe.Med			L.Toe.Tip			Cervical.Spine			Back			
		X1	Y1	Z1	X2	Y2	Z2	X3	Y3	Z3	X4	Y4	Z4	X5	Y5	Z5	X6	Y6	Z6	X7	Y7	Z7	X8	Y8	Z8	X9	Y9	Z9	X10	Y10	Z10	X11	Y11	Z11	X12	Y12	Z12	X13	Y13	Z13	X14	Y14	Z14	X15	Y15	Z15	X16	Y16	Z16	X17	Y17	Z17	X18	Y18	Z18	X19	Y19	Z19	X20	Y20	Z20	X21	Y21	Z21	X22	Y22	Z22	X23	Y23	Z23	X24	Y24	Z24	X25	Y25	Z25	X26	Y26	Z26	X27	Y27	Z27	X28	Y28	Z28	X29	Y29	Z29	X30	Y30	Z30	X31	Y31	Z31	X32	Y32	Z32	X33	Y33	Z33	X34	Y34	Z34	X35	Y35	Z35	X36	Y36	Z36	X37	Y37	Z37	X38	Y38	Z38	X39	Y39	Z39	X40	Y40	Z40	X41	Y41	Z41	X42	Y42	Z42	X43	Y43	Z43	X44	Y44	Z44	X45	Y45	Z45	X46	Y46	Z46	X47	Y47	Z47	X48	Y48	Z48	X49	Y49	Z49	X50	Y50	Z50	X51	Y51	Z51	

1	0	NaN	NaN	NaN	-1439.1	1438.5	499.21	-1466	1427.5	192.35	-1432	1737	335.17	NaN	NaN	NaN	NaN	NaN	NaN	-1623.3	1048.1	383.01	-1613.7	1041.8	293.99	-1500	938.49	541.72	NaN	NaN	NaN	-1499.3	1103.1	510.72	-1494.7	1108.4	187.97	-1635.9	1010.1	335.1	-1546.4	695.58	508.57	-1493.5	585.52	470.71	-1572.6	609.05	479.9	NaN	NaN	NaN	-1543.1	512.84	458.04	NaN	NaN	NaN	-1670.4	367.64	458.88	NaN	NaN	NaN	-1695.5	296.06	445.86	NaN	NaN	NaN	-1737.4	109.55	424.21	-1697.4	122.51	342.02	-1800	96.71	372.38	-1790.4	61.986	346.66	-1802.7	69.565	409.9	-1644.5	47.671	468.06	-1592.2	45.744	363.24	-1544	55.615	410.85	-1455.4	661.52	201.04	NaN	NaN	NaN	-1416.6	581.14	217.29	-1394.1	670.71	169.51	-1335.2	515.95	203.6	-1320.6	526.08	339.11	-1321.7	377.32	193.51	-1224.4	324.54	198.15	-1287.8	307.92	197.67	-1259.4	393.94	194.98	-1166.7	134.27	215.01	-1143.2	144.13	306.22	-1205.3	65.766	276.26	-1179.7	54.932	308.8	-1192.3	39.834	248.41	-1045.2	117.86	176.93	-1009.9	152.1	282.32	-979.03	186.18	217.2	-1535.7	1488	360.32	-1597.7	1225.2	352.56
2	0.0041667	NaN	NaN	NaN	-1434.7	1437.5	498.81	-1461.4	1426.8	191.87	-1427.7	1736.3	334.91	NaN	NaN	NaN	NaN	NaN	NaN	-1618.4	1047.2	382.5	-1608.8	1041	293.46	-1495.4	937.69	541.33	NaN	NaN	NaN	-1493.9	1102.2	509.84	-1489.8	1107.7	187.55	-1630.9	1009.2	334.57	-1542.1	694.78	508.28	-1489.9	584.5	470.82	-1568.2	608.24	479.34	NaN	NaN	NaN	-1539.2	512.04	457.74	NaN	NaN	NaN	-1667.4	367.76	458.67	NaN	NaN	NaN	-1693.4	296.53	445.75	NaN	NaN	NaN	-1736.6	110.93	424.02	-1696.6	122.94	341.94	-1799.5	97.731	372.37	-1790.2	63.006	346.6	-1802.4	70.573	409.84	-1644.3	47.713	467.96	-1592.1	45.704	363.31	-1543.8	55.336	410.97	-1449.5	660.95	200.57	NaN	NaN	NaN	-1410.6	580.66	217.02	-1388.4	670.43	169.34	-1329.1	515.47	203.9	-1314.8	526.01	339.16	-1316.9	376.75	193.74	-1220.2	322.99	198.88	-1283.7	307	198.04	-1254.5	392.71	195.61	-1164.8	132.38	215.79	-1141.5	141.92	306.94	-1204	64.479	276.76	-1178.7	53.472	309.38	-1191.1	38.463	248.99	-1043.1	115.19	178.18	-1008.1	149.15	283.51	-976.87	183.18	218.66	-1531.1	1487.2	359.87	-1593.1	1224.3	351.99
3	0.0083333	NaN	NaN	NaN	-1430.1	1436.6	498.39	-1456.6	1426	191.35	-1423.2	1735.6	334.63	NaN	NaN	NaN	NaN	NaN	NaN	-1613.3	1046.2	381.97	-1603.6	1040.1	292.93	-1490.5	936.85	540.92	NaN	NaN	NaN	-1488.4	1101.2	508.93	-1484.7	1107.1	187.11	-1625.8	1008.3	334.03	-1537.5	693.95	507.97	-1486.1	583.39	470.97	-1563.4	607.33	478.71	NaN	NaN	NaN	-1535	511.2	457.43	NaN	NaN	NaN	-1664.2	367.88	458.44	NaN	NaN	NaN	-1691.1	297.04	445.62	NaN	NaN	NaN	-1735.8	112.36	423.83	-1695.7	123.41	341.86	-1799.1	98.85	372.35	-1789.9	64.12	346.52	-1802	71.682	409.78	-1644.1	47.763	467.86	-1591.9	45.662	363.38	-1543.6	55.05	411.1	-1443.4	660.36	200.09	NaN	NaN	NaN	-1404.4	580.17	216.75	-1382.3	670.11	169.18	-1322.9	514.97	204.22	-1308.8	525.95	339.22	-1311.9	376.15	193.99	-1215.9	321.38	199.64	-1279.5	306.04	198.43	-1249.4	391.43	196.27	-1162.8	130.45	216.58	-1139.8	139.64	307.69	-1202.6	63.231	277.25	-1177.6	52.026	309.96	-1189.9	37.122	249.56	-1040.9	112.42	179.43	-1006.3	146.06	284.7	-974.62	180.05	220.13	-1526.2	1486.4	359.39	-1588.2	1223.3	351.4
4	0.0125	NaN	NaN	NaN	-1425.3	1435.6	497.95	-1451.6	1425.2	190.82	-1418.6	1734.8	334.34	NaN	NaN	NaN	NaN	NaN	NaN	-1607.9	1045.2	381.44	-1598.3	1039.2	292.38	-1485.4	935.97	540.48	NaN	NaN	NaN	-1482.9	1100.3	507.99	-1479.4	1106.4	186.65	-1620.5	1007.4	333.47	-1532.8	693.07	507.61	-1482.2	582.19	471.16	-1558.3	606.33	478	NaN	NaN	NaN	-1530.7	510.32	457.1	NaN	NaN	NaN	-1660.8	368.02	458.21	NaN	NaN	NaN	-1688.7	297.56	445.47	NaN	NaN	NaN	-1734.9	113.84	423.64	-1694.8	123.93	341.78	-1798.5	100.08	372.33	-1789.5	65.336	346.43	-1801.6	72.898	409.71	-1643.9	47.824	467.76	-1591.7	45.618	363.45	-1543.4	54.758	411.23	-1437	659.75	199.62	NaN	NaN	NaN	-1397.9	579.66	216.5	-1376.1	669.76	169.06	-1316.4	514.45	204.57	-1302.6	525.9	339.28	-1306.8	375.54	194.25	-1211.4	319.71	200.42	-1275.3	305.05	198.84	-1244.2	390.1	196.95	-1160.8	128.51	217.38	-1138.1	137.31	308.45	-1201.3	62.048	277.73	-1176.5	50.616	310.51	-1188.7	35.837	250.12	-1038.7	109.59	180.67	-1004.4	142.85	285.89	-972.32	176.81	221.59	-1521.3	1485.5	358.89	-1583.1	1222.4	350.78
5	0.016667	NaN	NaN	NaN	-1420.4	1434.6	497.48	-1446.4	1424.4	190.27	-1413.9	1734.1	334.05	NaN	NaN	NaN	NaN	NaN	NaN	-1602.5	1044.3	380.9	-1592.8	1038.3	291.84	-1480.1	935.06	540.02	NaN	NaN	NaN	-1477.5	1099.4	507.04	-1474	1105.7	186.18	-1615	1006.4	332.91	-1527.8	692.16	507.23	-1478.3	580.9	471.4	-1552.8	605.23	477.22	NaN	NaN	NaN	-1526.1	509.4	456.75	NaN	NaN	NaN	-1657.2	368.17	457.98	NaN	NaN	NaN	-1686.1	298.11	445.31	NaN	NaN	NaN	-1733.9	115.37	423.46	-1693.8	124.51	341.69	-1798	101.42	372.29	-1789.1	66.661	346.33	-1801.2	74.232	409.63	-1643.7	47.896	467.67	-1591.5	45.57	363.53	-1543.2	54.464	411.36	-1430.4	659.13	199.17	NaN	NaN	NaN	-1391.3	579.14	216.28	-1369.5	669.38	168.96	-1309.8	513.9	204.94	-1296.2	525.86	339.35	-1301.5	374.9	194.55	-1206.9	318.01	201.22	-1270.9	304.05	199.27	-1238.9	388.75	197.65	-1158.7	126.56	218.19	-1136.3	134.94	309.22	-1199.9	60.954	278.19	-1175.4	49.263	311.04	-1187.6	34.634	250.67	-1036.5	106.71	181.89	-1002.4	139.53	287.04	-969.96	173.45	223.03	-1516.1	1484.7	358.38	-1577.9	1221.4	350.15
6	0.020833	NaN	NaN	NaN	-1415.4	1433.5	496.98	-1441.1	1423.6	189.69	-1409.1	1733.3	333.75	NaN	NaN	NaN	NaN	NaN	NaN	-1596.9	1043.3	380.37	-1587.1	1037.5	291.29	-1474.7	934.13	539.54	NaN	NaN	NaN	-1472.1	1098.6	506.08	-1468.5	1105.1	185.71	-1609.3	1005.4	332.35	-1522.6	691.21	506.81	-1474.2	579.53	471.67	-1547	604.02	476.38	NaN	NaN	NaN	-1521.3	508.45	456.38	NaN	NaN	NaN	-1653.4	368.33	457.75	NaN	NaN	NaN	-1683.3	298.69	445.13	NaN	NaN	NaN	-1732.9	116.94	423.28	-1692.8	125.15	341.61	-1797.3	102.88	372.25	-1788.7	68.107	346.22	-1800.7	75.694	409.53	-1643.6	47.983	467.58	-1591.3	45.52	363.61	-1542.9	54.171	411.5	-1423.7	658.49	198.75	NaN	NaN	NaN	-1384.6	578.61	216.09	-1362.8	668.97	168.91	-1303.1	513.34	205.33	-1289.6	525.83	339.43	-1296.2	374.26	194.86	-1202.4	316.28	202.02	-1266.5	303.03	199.72	-1233.6	387.37	198.35	-1156.6	124.64	218.99	-1134.5	132.56	310	-1198.5	59.972	278.63	-1174.3	47.987	311.53	-1186.4	33.534	251.19	-1034.4	103.81	183.07	-1000.5	136.13	288.16	-967.57	170.02	224.42	-1510.9	1483.8	357.84	-1572.5	1220.4	349.51
7	0.025	NaN	NaN	NaN	-1410.2	1432.5	496.47	-1435.6	1422.8	189.1	-1404.2	1732.6	333.44	NaN	NaN	NaN	NaN	NaN	NaN	-1591.2	1042.3	379.83	-1581.4	1036.6	290.75	-1469.2	933.18	539.04	NaN	NaN	NaN	-1466.9	1097.9	505.12	-1462.9	1104.4	185.22	-1603.6	1004.5	331.79	-1517.2	690.24	506.35	-1470.1	578.08	471.97	-1540.7	602.7	475.47	NaN	NaN	NaN	-1516.3	507.47	456	NaN	NaN	NaN	-1649.4	368.51	457.53	NaN	NaN	NaN	-1680.4	299.29	444.94	NaN	NaN	NaN	-1731.7	118.54	423.11	-1691.6	125.86	341.53	-1796.6	104.49	372.2	-1788.3	69.684	346.1	-1800.2	77.293	409.43	-1643.4	48.086	467.5	-1591	45.467	363.69	-1542.6	53.879	411.63	-1417	657.86	198.34	NaN	NaN	NaN	-1377.7	578.08	215.92	-1356	668.53	168.91	-1296.4	512.76	205.74	-1283	525.82	339.52	-1290.9	373.61	195.2	-1197.9	314.55	202.82	-1262	302.01	200.19	-1228.2	385.98	199.05	-1154.4	122.76	219.78	-1132.6	130.18	310.78	-1197.1	59.119	279.04	-1173.3	46.805	311.98	-1185.4	32.556	251.69	-1032.3	100.9	184.2	-998.5	132.66	289.22	-965.15	166.5	225.76	-1505.6	1482.9	357.28	-1567.1	1219.5	348.86
8	0.029167	NaN	NaN	NaN	-1405	1431.5	495.94	-1430.1	1422	188.5	-1399.2	1731.9	333.12	NaN	NaN	NaN	NaN	NaN	NaN	-1585.4	1041.3	379.3	-1575.6	1035.7	290.21	-1463.5	932.21	538.52	NaN	NaN	NaN	-1461.8	1097.2	504.16	-1457.3	1103.7	184.72	-1597.7	1003.5	331.22	-1511.7	689.25	505.86	-1465.9	576.58	472.29	-1533.9	601.26	474.51	NaN	NaN	NaN	-1511.1	506.46	455.62	NaN	NaN	NaN	-1645.2	368.71	457.31	NaN	NaN	NaN	-1677.2	299.93	444.74	NaN	NaN	NaN	-1730.5	120.18	422.96	-1690.4	126.64	341.46	-1795.9	106.24	372.14	-1787.8	71.403	345.96	-1799.7	79.039	409.31	-1643.3	48.21	467.42	-1590.8	45.41	363.78	-1542.4	53.592	411.77	-1410.1	657.22	197.96	NaN	NaN	NaN	-1370.8	577.54	215.78	-1348.9	668.06	168.94	-1289.6	512.17	206.15	-1276.3	525.8	339.61	-1285.6	372.95	195.55	-1193.3	312.82	203.61	-1257.5	301	200.66	-1222.8	384.59	199.75	-1152.3	120.94	220.54	-1130.7	127.82	311.56	-1195.6	58.409	279.43	-1172.2	45.728	312.38	-1184.3	31.715	252.15	-1030.2	98	185.27	-996.5	129.14	290.23	-962.71	162.93	227.03	-1500.2	1482	356.71	-1561.5	1218.5	348.2
9	0.033333	NaN	NaN	NaN	-1399.7	1430.5	495.38	-1424.4	1421.2	187.88	-1394.2	1731.2	332.81	NaN	NaN	NaN	NaN	NaN	NaN	-1579.5	1040.3	378.77	-1569.7	1034.8	289.67	-1457.8	931.23	537.98	-1412.5	919.22	152.26	-1456.7	1096.5	503.22	-1451.6	1103.1	184.22	-1591.8	1002.6	330.66	-1506	688.24	505.32	-1461.5	575.03	472.6	-1526.8	599.68	473.52	NaN	NaN	NaN	-1505.7	505.42	455.22	NaN	NaN	NaN	-1640.8	368.93	457.11	NaN	NaN	NaN	-1673.9	300.61	444.53	NaN	NaN	NaN	-1729.2	121.86	422.82	-1689.1	127.49	341.39	-1795	108.15	372.07	-1787.2	73.276	345.8	-1799.1	80.945	409.17	-1643.1	48.357	467.35	-1590.5	45.351	363.87	-1542.1	53.309	411.91	-1403.2	656.58	197.6	NaN	NaN	NaN	-1363.9	577.01	215.67	-1341.8	667.56	169.03	-1282.9	511.57	206.57	-1269.5	525.78	339.71	-1280.2	372.3	195.92	-1188.7	311.12	204.39	-1253.1	300.01	201.15	-1217.4	383.22	200.44	-1150	119.2	221.29	-1128.7	125.51	312.33	-1194.2	57.849	279.79	-1171.2	44.764	312.75	-1183.3	31.019	252.58	-1028.2	95.128	186.29	-994.48	125.57	291.17	-960.24	159.32	228.23	-1494.8	1481.2	356.13	-1555.9	1217.5	347.53
10	0.0375	NaN	NaN	NaN	-1394.3	1429.6	494.82	-1418.7	1420.5	187.25	-1389.2	1730.5	332.48	NaN	NaN	NaN	NaN	NaN	NaN	-1573.6	1039.4	378.24	-1563.7	1033.9	289.14	-1452	930.25	537.41	-1406.7	918.75	151.75	-1451.8	1096	502.29	-1445.8	1102.5	183.7	-1585.9	1001.6	330.1	-1500.1	687.21	504.76	-1457	573.46	472.89	-1519.1	597.98	472.5	NaN	NaN	NaN	-1500.1	504.37	454.82	NaN	NaN	NaN	-1636.3	369.18	456.92	NaN	NaN	NaN	-1670.4	301.33	444.32	NaN	NaN	NaN	-1727.8	123.57	422.7	-1687.7	128.41	341.33	-1794.1	110.24	371.98	-1786.5	75.316	345.63	-1798.4	83.018	409.02	-1643	48.531	467.28	-1590.2	45.288	363.96	-1541.8	53.032	412.05	-1396.3	655.96	197.27	NaN	NaN	NaN	-1357	576.49	215.58	-1334.6	667.03	169.15	-1276.1	510.97	206.98	-1262.8	525.76	339.8	-1274.9	371.66	196.29	-1184.2	309.46	205.14	-1248.6	299.04	201.63	-1212.1	381.88	201.11	-1147.8	117.55	222.01	-1126.7	123.27	313.08	-1192.8	57.441	280.13	-1170.2	43.917	313.07	-1182.4	30.472	252.99	-1026.2	92.293	187.25	-992.45	121.98	292.04	-957.74	155.66	229.34	-1489.4	1480.3	355.53	-1550.3	1216.5	346.86
